<svg id="SvgjsSvg1001" width="288" height="288" xmlns="http://www.w3.org/2000/svg" version="1.1" xmlns:xlink="http://www.w3.org/1999/xlink" xmlns:svgjs="http://svgjs.com/svgjs"><defs id="SvgjsDefs1002"></defs><g id="SvgjsG1008" transform="matrix(0.9167,0,0,0.9167,11.995200000000011,12.235099958038347)"><!--?xml version="1.0" encoding="UTF-8"?--><svg xmlns="http://www.w3.org/2000/svg" viewBox="0 0 50 50" width="288" height="288"><path d="M32.68 8c-2.76 0-5.37.65-7.68 1.81A17.099 17.099 0 0 0 17.32 8C7.75 8 0 15.84 0 25.5S7.75 43 17.32 43c2.75 0 5.37-.66 7.68-1.81 2.31 1.16 4.92 1.81 7.68 1.81C42.25 43 50 35.16 50 25.5S42.25 8 32.68 8zm0 30.55c-.74 0-1.47-.07-2.19-.19 2.98-3.09 4.79-7.03 5.12-11.28L35.7 26H26v5.38h2.85a13.19 13.19 0 0 1-3.84 4.61 13.317 13.317 0 0 1-3.86-4.61H24V26h-9.7l.09 1.08c.34 4.28 2.12 8.23 5.06 11.29-.7.12-1.41.18-2.13.18-7.11 0-12.9-5.86-12.9-13.05s5.79-13.05 12.9-13.05c.75 0 1.48.06 2.18.18-2.25 2.35-3.85 5.24-4.48 8.16L14.76 22h5.46l.23-.68c.83-2.5 2.43-4.71 4.54-6.3 2.12 1.59 3.73 3.8 4.56 6.3l.23.68h5.46l-.26-1.21c-.64-2.98-2.2-5.81-4.46-8.15.71-.12 1.43-.19 2.16-.19 7.11 0 12.9 5.86 12.9 13.05s-5.79 13.05-12.9 13.05z" fill="#0084b4" class="color000 svgShape"></path><metadata><rdf:rdf xmlns:rdf="http://www.w3.org/1999/02/22-rdf-syntax-ns#" xmlns:rdfs="http://www.w3.org/2000/01/rdf-schema#" xmlns:dc="http://purl.org/dc/elements/1.1/"><rdf:description about="https://iconscout.com/legal#licenses" dc:title="gucci,filled" dc:description="gucci,filled" dc:publisher="Iconscout" dc:date="2017-12-09" dc:format="image/svg+xml" dc:language="en"><dc:creator><rdf:bag><rdf:li>Icons8</rdf:li></rdf:bag></dc:creator></rdf:description></rdf:rdf></metadata></svg></g></svg>